HIERARCHY
ROOT SpineBase
{
  OFFSET 0.000000 0.000000 0.000000
  CHANNELS 6 Xposition Yposition Zposition Zrotation Xrotation Yrotation
  JOINT SpineMid
  {
    OFFSET -0.000000 27.996209 0.000000
    CHANNELS 3 Zrotation Xrotation Yrotation
    JOINT SpineShoulder
    {
      OFFSET -0.116118 20.782848 -0.767958
      CHANNELS 3 Zrotation Xrotation Yrotation
      JOINT Neck
      {
        OFFSET -0.053672 6.831676 -0.550846
        CHANNELS 3 Zrotation Xrotation Yrotation
        JOINT Head
        {
          OFFSET 1.258610 13.957131 -1.944467
          CHANNELS 3 Zrotation Xrotation Yrotation
          End Site
          {
            OFFSET 0 0 0
          }
        }
      }
      JOINT ShoulderLeft
      {
        OFFSET -14.683337 -5.681124 1.389735
        CHANNELS 3 Zrotation Xrotation Yrotation
        JOINT ElbowLeft
        {
          OFFSET -1.316088 -23.821576 2.560198
          CHANNELS 3 Zrotation Xrotation Yrotation
          JOINT WristLeft
          {
            OFFSET 20.997390 -13.335468 -10.603354
            CHANNELS 3 Zrotation Xrotation Yrotation
            JOINT HandLeft
            {
              OFFSET 8.970121 -13.016596 -4.116760
              CHANNELS 3 Zrotation Xrotation Yrotation
              JOINT HandTipLeft
              {
                OFFSET 4.539011 -5.675134 -2.297509
                CHANNELS 3 Zrotation Xrotation Yrotation
                End Site
                {
                  OFFSET 0 0 0
                }
              }
              JOINT ThumbLeft
              {
                OFFSET -3.724162 -4.358810 0.926132
                CHANNELS 3 Zrotation Xrotation Yrotation
                End Site
                {
                  OFFSET 0 0 0
                }
              }
            }
          }
        }
      }
      JOINT ShoulderRight
      {
        OFFSET 11.428485 1.266281 -1.714947
        CHANNELS 3 Zrotation Xrotation Yrotation
        JOINT ElbowRight
        {
          OFFSET -8.546421 15.965917 -9.408971
          CHANNELS 3 Zrotation Xrotation Yrotation
          JOINT WristRight
          {
            OFFSET 4.565001 16.032215 6.793554
            CHANNELS 3 Zrotation Xrotation Yrotation
            JOINT HandRight
            {
              OFFSET 1.492918 5.355132 2.641389
              CHANNELS 3 Zrotation Xrotation Yrotation
              JOINT HandTipRight
              {
                OFFSET 1.320124 -7.134397 -2.023873
                CHANNELS 3 Zrotation Xrotation Yrotation
                End Site
                {
                  OFFSET 0 0 0
                }
              }
              JOINT ThumbRight
              {
                OFFSET 2.845458 -1.003023 -3.284011
                CHANNELS 3 Zrotation Xrotation Yrotation
                End Site
                {
                  OFFSET 0 0 0
                }
              }
            }
          }
        }
      }
    }
  }
  JOINT HipLeft
  {
    OFFSET -5.877674 -0.538253 -2.025840
    CHANNELS 3 Zrotation Xrotation Yrotation
    JOINT KneeLeft
    {
      OFFSET 10.249475 -43.810351 9.985123
      CHANNELS 3 Zrotation Xrotation Yrotation
      JOINT AnkleLeft
      {
        OFFSET 4.441525 -28.830636 7.365904
        CHANNELS 3 Zrotation Xrotation Yrotation
        JOINT FootLeft
        {
          OFFSET -0.312174 -3.491149 -13.644470
          CHANNELS 3 Zrotation Xrotation Yrotation
          End Site
          {
            OFFSET 0 0 0
          }
        }
      }
    }
  }
  JOINT HipRight
  {
    OFFSET 6.370328 1.682459 -4.799549
    CHANNELS 3 Zrotation Xrotation Yrotation
    JOINT KneeRight
    {
      OFFSET 4.064740 -38.979661 6.693265
      CHANNELS 3 Zrotation Xrotation Yrotation
      JOINT AnkleRight
      {
        OFFSET 12.769899 -29.908596 8.184839
        CHANNELS 3 Zrotation Xrotation Yrotation
        JOINT FootRight
        {
          OFFSET -5.469833 -7.041221 -1.712163
          CHANNELS 3 Zrotation Xrotation Yrotation
          End Site
          {
            OFFSET 0 0 0
          }
        }
      }
    }
  }
}
MOTION
Frames: 15
Frame Time: 0.033333
-27.376235 81.017011 341.329561 2.299163 -3.955676 6.228332 -0.108022 -0.557905 -6.078729 -0.283722 -0.290142 0.078618 -2.025432 -4.522165 0.788407 0.000000 0.000000 0.000000 -4.939302 1.576475 -0.012255 -37.598786 -15.315709 0.145444 24.280126 9.775862 -6.234710 -7.501808 -6.193949 -2.646812 0.000000 0.000000 0.000000 0.000000 0.000000 0.000000 -0.564679 -1.525046 -2.552161 48.463605 -51.009096 32.291968 3.700837 -0.513275 -12.028025 -86.661840 57.278722 60.211717 0.000000 0.000000 0.000000 0.000000 0.000000 0.000000 -5.164346 9.294447 -5.440498 7.394629 -11.576108 0.282505 -2.848944 -2.103130 -2.458641 0.000000 0.000000 0.000000 4.057451 16.239980 -5.020322 -9.516830 -14.357757 -5.841027 40.704942 40.669373 -57.662176 0.000000 0.000000 0.000000
-27.486915 80.696026 341.265648 2.518467 -4.765811 6.113982 -0.193545 -0.599155 -5.933358 -0.320230 -0.309065 0.083836 -1.974982 -5.178859 0.963390 0.000000 0.000000 0.000000 -5.400859 1.903452 0.053538 -41.651987 -16.748043 0.189566 25.416612 6.809959 -10.645900 -8.533415 -2.021263 3.810480 0.000000 0.000000 0.000000 0.000000 0.000000 0.000000 20.510689 -41.620249 -3.792457 12.548227 -7.369094 14.090366 4.305171 6.084990 -15.629653 -119.346250 51.635106 92.235540 0.000000 0.000000 0.000000 0.000000 0.000000 0.000000 -6.222615 9.920543 -5.384335 9.612368 -11.264658 1.055818 -3.628856 -0.316444 -5.385644 0.000000 0.000000 0.000000 5.032369 20.570318 -4.868604 -12.491229 -18.194421 -8.262440 45.198346 37.526959 -56.306214 0.000000 0.000000 0.000000
-27.685018 80.320676 341.145942 2.613696 -5.653598 6.381428 -0.319546 -0.584747 -6.175660 -0.366822 -0.297869 0.081363 -0.831863 -6.081412 1.288531 0.000000 0.000000 0.000000 -5.385431 2.215081 0.141660 -42.798497 -16.893112 0.155821 25.495507 5.555914 -12.286240 -8.944685 -0.850673 5.919347 0.000000 0.000000 0.000000 0.000000 0.000000 0.000000 140.567727 -68.543765 93.907354 -41.505500 48.422533 39.923381 4.654544 18.231547 -19.558800 -146.562439 38.165216 117.864648 0.000000 0.000000 0.000000 0.000000 0.000000 0.000000 -6.974073 10.704445 -5.663886 11.727312 -10.852813 1.795733 -5.280383 1.569482 -3.708385 0.000000 0.000000 0.000000 6.242503 24.453224 -5.253271 -15.264673 -20.872879 -10.408448 45.062463 38.329737 -54.887280 0.000000 0.000000 0.000000
-27.968376 79.928931 340.955196 2.573911 -6.693357 7.281229 -0.450504 -0.520584 -7.057700 -0.410675 -0.262576 0.073227 0.691600 -6.299257 1.580731 0.000000 0.000000 0.000000 -5.035183 2.597503 0.243015 -39.813106 -15.290072 -0.155969 22.230943 6.749986 -8.529913 -6.674664 -1.699399 3.017428 0.000000 0.000000 0.000000 0.000000 0.000000 0.000000 166.355410 -55.812959 112.822872 -77.429139 58.574231 62.604876 -1.225022 35.517100 -21.267361 -137.407213 40.317514 105.396360 0.000000 0.000000 0.000000 0.000000 0.000000 0.000000 -7.224768 11.561546 -6.575973 13.533530 -10.158702 2.451876 -7.081898 3.627789 -1.358822 0.000000 0.000000 0.000000 7.446019 27.524932 -6.429307 -16.970477 -22.430737 -11.805202 42.566600 41.273383 -54.158883 0.000000 0.000000 0.000000
-28.294975 79.507323 340.619948 2.558693 -7.618851 8.760608 -0.544229 -0.384400 -8.518787 -0.431748 -0.203769 0.068296 2.516568 -7.043213 1.949463 0.000000 0.000000 0.000000 -4.575405 2.619572 0.327849 -40.831994 -15.054247 0.219237 22.601137 6.453635 -9.195107 -8.545199 -1.894151 4.224854 0.000000 0.000000 0.000000 0.000000 0.000000 0.000000 173.305752 -51.770014 117.591861 -90.902209 61.380892 71.190865 -4.138803 41.797526 -22.702304 -137.080188 38.239488 99.683170 0.000000 0.000000 0.000000 0.000000 0.000000 0.000000 -7.184031 12.200566 -8.111498 14.868159 -8.938573 2.973275 -8.402072 0.323745 -0.090532 0.000000 0.000000 0.000000 9.089003 29.885898 -8.351109 -18.798060 -23.134818 -13.034273 42.312859 38.455973 -50.045573 0.000000 0.000000 0.000000
-28.609010 79.033374 339.975961 2.608088 -8.557542 11.161584 -0.611904 -0.183958 -10.893184 -0.446638 -0.131506 0.067132 4.658389 -7.289746 2.294983 0.000000 0.000000 0.000000 -3.917454 2.389690 0.411303 -42.253487 -14.721162 0.893746 23.001212 6.256695 -9.860652 -8.746937 -1.240020 5.397453 0.000000 0.000000 0.000000 0.000000 0.000000 0.000000 172.426215 -48.606806 114.611787 -85.687570 61.908729 62.357960 -16.351969 58.834806 -19.439826 -124.310569 38.821976 85.993680 0.000000 0.000000 0.000000 0.000000 0.000000 0.000000 -6.794423 12.834343 -10.593419 15.648573 -7.571593 3.301419 -9.678124 -1.032097 2.639795 0.000000 0.000000 0.000000 10.974670 30.970353 -11.337941 -17.890471 -20.141264 -10.817883 38.212508 34.124179 -45.906820 0.000000 0.000000 0.000000
-28.892076 78.513666 339.119628 2.754259 -9.527183 13.970365 -0.602308 -0.026510 -13.663531 -0.429574 -0.088217 0.073788 6.520643 -6.582576 2.466233 0.000000 0.000000 0.000000 -3.412097 2.546316 0.483656 -43.772885 -14.668254 0.984088 22.298388 6.511624 -9.365323 -7.937285 -1.240935 4.979720 0.000000 0.000000 0.000000 0.000000 0.000000 0.000000 168.500994 -46.222039 108.899250 -53.499487 57.073925 31.695848 -120.243040 83.463486 67.238125 -96.701928 38.514010 59.636025 0.000000 0.000000 0.000000 0.000000 0.000000 0.000000 -6.347640 13.444628 -13.500196 15.163957 -9.650847 2.904854 -9.579268 0.742832 6.951033 0.000000 0.000000 0.000000 12.785808 31.232841 -14.746210 -18.026901 -15.991390 -8.945338 35.084932 28.430924 -40.674827 0.000000 0.000000 0.000000
-29.252387 78.001493 338.189602 2.817487 -10.560561 16.938437 -0.550644 0.132241 -16.601614 -0.410840 -0.040858 0.077615 8.750630 -6.212769 2.680631 0.000000 0.000000 0.000000 -2.821640 2.451302 0.562134 -45.465219 -14.535659 0.760170 21.305875 7.252370 -7.977086 -4.959142 -0.332135 4.165134 0.000000 0.000000 0.000000 0.000000 0.000000 0.000000 167.857341 -48.784475 109.172749 -6.259223 31.052733 1.251705 157.068069 29.968110 115.938444 -44.211222 13.437033 24.795832 0.000000 0.000000 0.000000 0.000000 0.000000 0.000000 -5.632776 14.067950 -16.587351 15.474889 -7.453235 3.146555 -10.536495 -1.604228 10.070652 0.000000 0.000000 0.000000 14.777166 31.369282 -18.357261 -18.285515 -11.629110 -6.998973 34.406965 19.751463 -34.834827 0.000000 0.000000 0.000000
-29.581558 77.415052 336.858708 2.900416 -11.201150 19.868254 -0.524374 0.224745 -19.505575 -0.414097 -0.033484 0.081588 11.564828 -6.560349 3.051010 0.000000 0.000000 0.000000 -2.061711 1.940008 0.629910 -47.528668 -14.460628 0.115214 20.480956 7.951992 -6.491324 -1.045782 0.228800 2.143233 0.000000 0.000000 0.000000 0.000000 0.000000 0.000000 169.069418 -49.755401 110.711235 32.472572 -27.835035 -6.621201 97.055033 -9.931754 66.502472 -0.075884 -61.858617 17.702999 0.000000 0.000000 0.000000 0.000000 0.000000 0.000000 -5.262740 14.417244 -19.665812 17.263275 -2.374886 4.001043 -12.926005 -6.475466 11.779010 0.000000 0.000000 0.000000 16.540698 31.144327 -21.802980 -18.707742 -8.629646 -5.773280 33.338449 13.809772 -30.389363 0.000000 0.000000 0.000000
-29.840059 76.832809 335.214007 3.060011 -11.792560 22.702187 -0.486026 0.267396 -22.304260 -0.412715 -0.024002 0.089702 14.210550 -6.118595 3.225840 0.000000 0.000000 0.000000 -1.363869 0.762220 0.739154 -49.252286 -13.815668 0.174079 20.503182 8.743494 -5.322862 1.873567 -0.032152 -0.268141 0.000000 0.000000 0.000000 0.000000 0.000000 0.000000 174.877551 -54.153924 119.131862 43.525973 -44.532537 -9.995087 69.109512 -7.083397 44.210462 131.057144 -68.957439 126.215539 0.000000 0.000000 0.000000 0.000000 0.000000 0.000000 -5.107928 14.739416 -22.638094 18.953415 5.688808 4.877821 -15.706717 -13.968674 11.910828 0.000000 0.000000 0.000000 17.916984 30.788968 -25.044086 -19.182008 -6.211454 -4.879866 31.835426 10.062850 -27.329112 0.000000 0.000000 0.000000
-29.994044 76.241275 333.335386 3.320574 -12.132107 25.851406 -0.475548 0.299900 -25.407087 -0.423382 -0.018918 0.101098 17.183024 -6.275141 3.559842 0.000000 0.000000 0.000000 -0.620854 -0.084171 0.823560 -51.449170 -13.749249 -1.425366 21.012663 9.887066 -3.597738 4.316025 -0.195466 -2.232216 0.000000 0.000000 0.000000 0.000000 0.000000 0.000000 -168.496971 -60.927615 141.191892 45.735386 -55.334556 -24.961128 60.482056 -4.860053 35.947409 123.216302 -58.965100 109.579186 0.000000 0.000000 0.000000 0.000000 0.000000 0.000000 -4.963947 15.252618 -25.859875 20.480276 15.230351 5.686355 -19.105688 -22.776502 9.873898 0.000000 0.000000 0.000000 19.019501 29.894162 -28.444097 -19.697526 -4.901748 -4.616081 30.264066 9.401472 -25.998605 0.000000 0.000000 0.000000
-30.073035 75.636064 331.223008 3.624496 -12.258814 28.274314 -0.466558 0.322439 -27.782462 -0.434227 -0.018915 0.114310 20.027334 -6.400967 3.890870 0.000000 0.000000 0.000000 0.082606 -0.916970 0.905867 -53.503693 -13.735696 -3.580867 21.969375 11.800189 -1.115658 4.381765 0.140213 -1.752914 0.000000 0.000000 0.000000 0.000000 0.000000 0.000000 -144.731377 -64.124833 170.766929 26.213391 -60.843823 -66.200623 65.072683 -0.079924 31.253105 103.186632 -52.069099 82.858070 0.000000 0.000000 0.000000 0.000000 0.000000 0.000000 -5.156692 15.745006 -28.306624 21.743099 24.485484 6.358877 -22.876524 -31.034071 6.148468 0.000000 0.000000 0.000000 19.422808 29.116535 -30.936310 -19.939055 -4.559514 -4.719888 28.321324 11.429097 -26.273209 0.000000 0.000000 0.000000
-30.030217 75.068674 328.868277 4.001691 -12.139328 30.169505 -0.457188 0.367609 -29.627164 -0.447518 -0.000879 0.129603 22.779493 -6.614903 4.285166 0.000000 0.000000 0.000000 0.795863 -1.565844 0.971760 -55.503767 -13.903018 -6.265877 23.039011 14.178801 1.750082 3.588393 -1.683579 -3.517585 0.000000 0.000000 0.000000 0.000000 0.000000 0.000000 -121.237693 -61.993142 -159.950466 0.295762 -8.213505 -172.714822 150.334221 37.776078 -41.399941 59.100703 -33.293658 47.078659 0.000000 0.000000 0.000000 0.000000 0.000000 0.000000 -5.726574 16.823571 -30.080596 22.580389 31.069364 7.045235 -26.073703 -37.392023 3.272671 0.000000 0.000000 0.000000 19.004542 28.197240 -32.687016 -19.830686 -4.939628 -5.084620 24.298279 15.966592 -26.933091 0.000000 0.000000 0.000000
-29.899840 74.555785 326.620696 4.445647 -12.033088 31.223944 -0.471426 0.365628 -30.621059 -0.461593 -0.004855 0.148329 25.419180 -6.618803 4.618312 0.000000 0.000000 0.000000 1.365222 -2.146708 1.049151 -57.035426 -13.866396 -8.911724 23.474658 16.451649 4.829863 0.255840 -4.194596 -4.769887 0.000000 0.000000 0.000000 0.000000 0.000000 0.000000 -107.450767 -57.008343 -141.348265 33.978238 57.681940 16.081938 167.639825 43.046183 156.495608 45.639245 1.482683 31.792317 0.000000 0.000000 0.000000 0.000000 0.000000 0.000000 -6.518088 18.396142 -30.872889 22.935125 34.610158 7.775267 -27.819874 -41.437208 1.174857 0.000000 0.000000 0.000000 17.815455 28.062152 -33.561056 -18.844040 -6.448842 -5.625164 22.015943 19.651081 -26.932737 0.000000 0.000000 0.000000
-29.776090 74.120678 324.380837 5.011376 -11.750650 31.734671 -0.465802 0.383963 -31.064191 -0.462636 -0.000551 0.171834 27.439359 -7.631995 5.327183 0.000000 0.000000 0.000000 1.686271 -2.904938 1.145810 -58.190753 -13.726913 -11.148171 23.003182 19.599657 9.440122 -3.467032 -7.536295 -7.329311 0.000000 0.000000 0.000000 0.000000 0.000000 0.000000 -103.508429 -53.339113 -134.712689 36.920167 73.327653 4.346674 -162.908547 76.498992 127.932590 60.957362 46.977274 5.650217 0.000000 0.000000 0.000000 0.000000 0.000000 0.000000 -7.973743 19.624101 -31.115798 23.168723 35.609619 8.370490 -27.801667 -43.043194 1.096793 0.000000 0.000000 0.000000 15.796258 27.785976 -33.707110 -17.489639 -7.588526 -5.839126 20.338557 22.907712 -26.998115 0.000000 0.000000 0.000000
